<svg width="10" height="6" viewBox="0 0 10 6" fill="none" xmlns="http://www.w3.org/2000/svg">
<path d="M4.54024 5.41506L0.943239 1.30356C0.518739 0.819809 0.863739 0.0600589 1.50799 0.0600589H8.70199C8.84617 0.0599352 8.98733 0.101374 9.10857 0.179414C9.22981 0.257454 9.32598 0.368786 9.38558 0.500078C9.44517 0.631371 9.46565 0.777057 9.44458 0.919692C9.4235 1.06233 9.36176 1.19586 9.26674 1.30431L5.66974 5.41431C5.59934 5.49487 5.51253 5.55943 5.41512 5.60367C5.31771 5.64791 5.21197 5.67079 5.10499 5.67079C4.99801 5.67079 4.89226 5.64791 4.79486 5.60367C4.69745 5.55943 4.61063 5.49487 4.54024 5.41431V5.41506Z" fill="#FF5238"/>
</svg>
