<svg width="10" height="7" viewBox="0 0 10 7" fill="none" xmlns="http://www.w3.org/2000/svg">
<path d="M4.54024 0.705058L0.943239 4.81656C0.518739 5.30031 0.863739 6.06006 1.50799 6.06006H8.70199C8.84617 6.06018 8.98733 6.01874 9.10857 5.9407C9.22981 5.86266 9.32598 5.75133 9.38558 5.62004C9.44517 5.48875 9.46565 5.34306 9.44458 5.20043C9.4235 5.05779 9.36176 4.92425 9.26674 4.81581L5.66974 0.705808C5.59934 0.625251 5.51253 0.560687 5.41512 0.516448C5.31771 0.472211 5.21197 0.449323 5.10499 0.449323C4.99801 0.449323 4.89226 0.472211 4.79486 0.516448C4.69745 0.560687 4.61063 0.625251 4.54024 0.705808V0.705058Z" fill="#83BF0B"/>
</svg>
