<svg width="14" height="14" viewBox="0 0 14 14" fill="none" xmlns="http://www.w3.org/2000/svg">
<path d="M7.9006 6.09934C7.42278 5.62173 6.77485 5.35342 6.09926 5.35342C5.42368 5.35342 4.77574 5.62173 4.29793 6.09934L2.49601 7.90067C2.01819 8.3785 1.74976 9.02656 1.74976 9.7023C1.74976 10.378 2.01819 11.0261 2.49601 11.5039C2.97383 11.9817 3.6219 12.2502 4.29764 12.2502C4.97338 12.2502 5.62144 11.9817 6.09926 11.5039L6.99993 10.6033" stroke="white" stroke-width="1.5" stroke-linecap="round" stroke-linejoin="round"/>
<path d="M6.09937 7.90067C6.57718 8.37829 7.22511 8.64659 7.9007 8.64659C8.57629 8.64659 9.22422 8.37829 9.70203 7.90067L11.5039 6.09934C11.9818 5.62152 12.2502 4.97345 12.2502 4.29771C12.2502 3.62197 11.9818 2.97391 11.5039 2.49609C11.0261 2.01827 10.3781 1.74983 9.70232 1.74983C9.02658 1.74983 8.37852 2.01827 7.9007 2.49609L7.00003 3.39676" stroke="white" stroke-width="1.5" stroke-linecap="round" stroke-linejoin="round"/>
</svg>
