<svg width="20" height="20" viewBox="0 0 20 20" fill="none" xmlns="http://www.w3.org/2000/svg">
<path fill-rule="evenodd" clip-rule="evenodd" d="M10 18C14.4183 18 18 14.4183 18 10C18 5.58172 14.4183 2 10 2C5.58172 2 2 5.58172 2 10C2 14.4183 5.58172 18 10 18ZM20 10C20 15.5228 15.5228 20 10 20C4.47715 20 0 15.5228 0 10C0 4.47715 4.47715 0 10 0C15.5228 0 20 4.47715 20 10Z" fill="#7A48CF"/>
<path d="M15.048 5.52393L8.57178 12.0001L5.90511 9.33345L4.57178 10.6668L8.57178 14.6668L16.3813 6.85726L15.048 5.52393Z" fill="#7A48CF"/>
</svg>
