<svg width="25" height="25" viewBox="0 0 25 25" fill="none" xmlns="http://www.w3.org/2000/svg">
<path fill-rule="evenodd" clip-rule="evenodd" d="M3.30811 12.0601C3.30811 9.60681 4.28266 7.25403 6.01737 5.51932C7.75208 3.78461 10.1049 2.81006 12.5581 2.81006C15.0114 2.81006 17.3641 3.78461 19.0988 5.51932C20.8336 7.25403 21.8081 9.60681 21.8081 12.0601C21.8081 14.5133 20.8336 16.8661 19.0988 18.6008C17.3641 20.3355 15.0114 21.3101 12.5581 21.3101C10.1049 21.3101 7.75208 20.3355 6.01737 18.6008C4.28266 16.8661 3.30811 14.5133 3.30811 12.0601ZM12.5581 1.31006C6.62111 1.31006 1.80811 6.12306 1.80811 12.0601C1.80811 17.9971 6.62111 22.8101 12.5581 22.8101C18.4951 22.8101 23.3081 17.9971 23.3081 12.0601C23.3081 6.12306 18.4951 1.31006 12.5581 1.31006ZM17.2411 8.37006C17.3042 8.23109 17.3234 8.07617 17.2962 7.92599C17.2689 7.77582 17.1965 7.63753 17.0886 7.52961C16.9806 7.42168 16.8423 7.34926 16.6922 7.322C16.542 7.29474 16.3871 7.31395 16.2481 7.37706L11.8401 9.38106L11.7801 9.40806C11.4341 9.56506 11.1611 9.68806 10.9221 9.86806C10.7111 10.0258 10.5238 10.213 10.3661 10.4241C10.1861 10.6641 10.0631 10.9361 9.90611 11.2821L9.87911 11.3421L7.87511 15.7501C7.81199 15.889 7.79279 16.0439 7.82004 16.1941C7.8473 16.3443 7.91973 16.4826 8.02766 16.5905C8.13558 16.6984 8.27387 16.7709 8.42404 16.7981C8.57422 16.8254 8.72914 16.8062 8.86811 16.7431L13.2761 14.7391L13.3361 14.7121C13.6821 14.5551 13.9551 14.4321 14.1941 14.2521C14.4051 14.0943 14.5924 13.9071 14.7501 13.6961C14.9301 13.4561 15.0531 13.1841 15.2101 12.8381L15.2371 12.7781L17.2411 8.37006ZM12.4611 10.7461L15.0481 9.57006L13.8721 12.1571C13.6751 12.5911 13.6181 12.7051 13.5491 12.7981C13.4774 12.8941 13.3922 12.9793 13.2961 13.0511C13.2031 13.1211 13.0891 13.1771 12.6561 13.3741L10.0681 14.5501L11.2441 11.9631C11.4411 11.5291 11.4981 11.4151 11.5671 11.3221C11.6391 11.2261 11.7241 11.1411 11.8201 11.0691C11.9131 10.9991 12.0271 10.9431 12.4601 10.7461H12.4611Z" fill="white"/>
</svg>
