<svg width="14" height="4" viewBox="0 0 14 4" fill="none" xmlns="http://www.w3.org/2000/svg">
<path d="M6.99992 3.82668C7.44195 3.82668 7.86587 3.65109 8.17843 3.33852C8.49099 3.02596 8.66658 2.60204 8.66658 2.16001C8.66658 1.71799 8.49099 1.29406 8.17843 0.981503C7.86587 0.668942 7.44195 0.493347 6.99992 0.493347C6.55789 0.493347 6.13397 0.668942 5.82141 0.981503C5.50885 1.29406 5.33325 1.71799 5.33325 2.16001C5.33325 2.60204 5.50885 3.02596 5.82141 3.33852C6.13397 3.65109 6.55789 3.82668 6.99992 3.82668ZM1.99992 3.82668C2.44195 3.82668 2.86587 3.65109 3.17843 3.33852C3.49099 3.02596 3.66658 2.60204 3.66658 2.16001C3.66658 1.71799 3.49099 1.29406 3.17843 0.981503C2.86587 0.668942 2.44195 0.493347 1.99992 0.493347C1.55789 0.493347 1.13397 0.668942 0.821407 0.981503C0.508847 1.29406 0.333252 1.71799 0.333252 2.16001C0.333252 2.60204 0.508847 3.02596 0.821407 3.33852C1.13397 3.65109 1.55789 3.82668 1.99992 3.82668V3.82668ZM11.9999 3.82668C12.4419 3.82668 12.8659 3.65109 13.1784 3.33852C13.491 3.02596 13.6666 2.60204 13.6666 2.16001C13.6666 1.71799 13.491 1.29406 13.1784 0.981503C12.8659 0.668942 12.4419 0.493347 11.9999 0.493347C11.5579 0.493347 11.134 0.668942 10.8214 0.981503C10.5088 1.29406 10.3333 1.71799 10.3333 2.16001C10.3333 2.60204 10.5088 3.02596 10.8214 3.33852C11.134 3.65109 11.5579 3.82668 11.9999 3.82668V3.82668Z" fill="white"/>
</svg>
