<svg width="9" height="6" viewBox="0 0 9 6" fill="none" xmlns="http://www.w3.org/2000/svg">
<path d="M4.04012 5.41506L0.443117 1.30356C0.0186166 0.819809 0.363617 0.0600589 1.00787 0.0600589H8.20187C8.34605 0.0599352 8.48721 0.101374 8.60845 0.179414C8.72969 0.257454 8.82586 0.368786 8.88545 0.500078C8.94504 0.631371 8.96553 0.777057 8.94445 0.919692C8.92338 1.06233 8.86163 1.19586 8.76662 1.30431L5.16962 5.41431C5.09922 5.49487 5.0124 5.55943 4.915 5.60367C4.81759 5.64791 4.71185 5.67079 4.60487 5.67079C4.49788 5.67079 4.39214 5.64791 4.29473 5.60367C4.19733 5.55943 4.11051 5.49487 4.04012 5.41431V5.41506Z" fill="white"/>
</svg>
