<svg width="24" height="24" viewBox="0 0 24 24" fill="none" xmlns="http://www.w3.org/2000/svg">
<path d="M15.9768 8.02314C15.6486 7.7046 15.1757 7.57912 14.751 7.71426L10.0019 9.20074C9.62547 9.32622 9.32625 9.62545 9.20076 10.0019L7.76254 14.6255L7.71428 14.7799C7.67567 14.8764 7.66602 14.9922 7.66602 15.1081C7.66602 15.4266 7.7915 15.7355 8.02316 15.9672C8.24517 16.1988 8.55405 16.3339 8.89188 16.3339C9.01737 16.3339 9.14285 16.3146 9.24903 16.276L13.9981 14.7895C14.3745 14.6641 14.6641 14.3745 14.7896 13.9884L16.2761 9.25866C16.4112 8.82429 16.2954 8.34167 15.9768 8.02314ZM13.0618 13.0617L9.97297 14.027L10.9382 10.9382L14.027 9.96329L13.0618 13.0617Z" fill="white"/>
<path d="M12 2C6.48842 2 2 6.48842 2 12C2 17.5116 6.48842 22 12 22C17.5116 22 22 17.5116 22 12C22 6.48842 17.5116 2 12 2ZM19.9054 12C19.9054 16.3629 16.3629 19.9054 12 19.9054C7.63707 19.9054 4.09459 16.3629 4.09459 12C4.09459 7.63707 7.63707 4.09459 12 4.09459C16.3629 4.09459 19.9054 7.63707 19.9054 12Z" fill="white"/>
</svg>
