<svg width="24" height="24" viewBox="0 0 24 24" fill="none" xmlns="http://www.w3.org/2000/svg">
<path d="M20.1815 3.86293C19.6795 3.46718 18.9942 3.12934 18.1448 2.83977C16.5135 2.29923 14.3707 2 12.1023 2C9.83398 2 7.69112 2.29923 6.05985 2.83977C5.20077 3.12934 4.51544 3.46718 4.02317 3.86293C3.35714 4.39382 3 5.03089 3 5.70656V18.2934C3 18.9691 3.35714 19.6062 4.02317 20.1371C4.5251 20.5328 5.21042 20.8707 6.05985 21.1602C7.69112 21.7008 9.83398 22 12.1023 22C14.3707 22 16.5135 21.7008 18.1448 21.1602C19.0039 20.8707 19.6892 20.5328 20.1815 20.1371C20.8475 19.6062 21.2046 18.9691 21.2046 18.2934V5.70656C21.2046 5.03089 20.8475 4.39382 20.1815 3.86293ZM18.9266 5.96718C18.7143 6.14093 18.2896 6.40154 17.4981 6.66216C16.0695 7.13514 14.1486 7.39575 12.1023 7.39575C10.0463 7.39575 8.12548 7.13514 6.70656 6.66216C5.91506 6.39189 5.49035 6.13127 5.26834 5.96718C5.10425 5.83205 5.04633 5.74517 5.02703 5.70656C5.04633 5.66795 5.10425 5.58108 5.26834 5.4556C5.49035 5.28185 5.91506 5.02124 6.69691 4.76062C8.12548 4.28764 10.0463 4.02703 12.1023 4.02703C14.1583 4.02703 16.0792 4.28764 17.5077 4.76062C18.2992 5.02124 18.7143 5.28185 18.9363 5.4556C19.1197 5.60039 19.1776 5.69691 19.1873 5.69691C19.168 5.72587 19.1197 5.81274 18.9266 5.96718ZM18.1351 8.57336C18.4923 8.45753 18.8398 8.32239 19.1776 8.1583V11.9807C19.1776 11.9807 19.1486 12.0772 18.9266 12.2606C18.7143 12.4344 18.2896 12.6853 17.4981 12.9556C16.0695 13.4286 14.1486 13.6892 12.0927 13.6892C10.0367 13.6892 8.11583 13.4286 6.68726 12.9556C5.90541 12.695 5.48069 12.4344 5.25869 12.2606C5.05598 12.0965 5.01737 12 5.00772 12V8.1583C5.34556 8.32239 5.69305 8.45753 6.05019 8.57336C7.68147 9.1139 9.82432 9.41313 12.0927 9.41313C14.361 9.41313 16.5135 9.1139 18.1351 8.57336ZM18.1351 14.8668C18.4923 14.751 18.8398 14.6158 19.1776 14.4517V18.2741C19.1776 18.2741 19.1486 18.3707 18.9266 18.5541C18.7143 18.7278 18.2896 18.9788 17.4981 19.249C16.0695 19.722 14.1486 19.9826 12.0927 19.9826C10.0367 19.9826 8.11583 19.722 6.68726 19.249C5.90541 18.9884 5.48069 18.7278 5.25869 18.5541C5.05598 18.39 5.01737 18.2934 5.00772 18.2934V14.4517C5.34556 14.6158 5.69305 14.751 6.05019 14.8668C7.68147 15.4073 9.82432 15.7066 12.0927 15.7066C14.361 15.7066 16.5135 15.4073 18.1351 14.8668Z" fill="white"/>
</svg>
