<svg width="24" height="24" viewBox="0 0 24 24" fill="none" xmlns="http://www.w3.org/2000/svg">
<path fill-rule="evenodd" clip-rule="evenodd" d="M13.178 0.987006C12.8098 0.812467 12.4075 0.721924 12 0.721924C11.5926 0.721924 11.1902 0.812467 10.822 0.987006C10.305 1.23201 9.93902 1.69601 9.61502 2.22001C9.28802 2.74601 8.93002 3.46201 8.48502 4.35401L8.46702 4.38901L8.10702 5.10801C7.80202 5.71801 7.71302 5.87901 7.60202 5.99601C7.4869 6.11645 7.34886 6.21267 7.19602 6.27901C7.04702 6.34301 6.86602 6.37101 6.18702 6.44701L5.86102 6.48301L5.82102 6.48701C4.75102 6.60701 3.89502 6.70101 3.24802 6.83301C2.60802 6.96301 2.01302 7.15501 1.59702 7.58101C1.30287 7.88114 1.08142 8.24469 0.949671 8.64374C0.817925 9.0428 0.779387 9.46674 0.837017 9.88301C0.918017 10.473 1.28202 10.982 1.71802 11.466C2.16002 11.958 2.79102 12.544 3.58002 13.276L3.61002 13.303L3.95402 13.623C4.55202 14.179 4.70502 14.336 4.79102 14.503C4.88002 14.676 4.92702 14.867 4.92902 15.061C4.93102 15.249 4.86702 15.463 4.59302 16.244L4.58002 16.281C4.17602 17.433 3.85602 18.345 3.67402 19.055C3.49802 19.745 3.39902 20.422 3.62902 21.008C3.78881 21.4145 4.04313 21.7771 4.37093 22.0658C4.69872 22.3545 5.09057 22.5609 5.51402 22.668C6.12302 22.823 6.77602 22.644 7.43202 22.385C8.10602 22.119 8.95802 21.693 10.033 21.155L10.069 21.138L10.904 20.72C11.468 20.438 11.622 20.369 11.77 20.34C11.922 20.3115 12.078 20.3115 12.23 20.34C12.378 20.369 12.532 20.438 13.096 20.72L13.932 21.138L13.967 21.155C15.042 21.693 15.895 22.119 16.567 22.385C17.224 22.643 17.877 22.823 18.487 22.669C18.9104 22.5617 19.3021 22.355 19.6297 22.0662C19.9573 21.7773 20.2115 21.4146 20.371 21.008C20.601 20.422 20.502 19.744 20.326 19.055C20.144 18.345 19.824 17.433 19.42 16.281L19.407 16.244C19.133 15.464 19.069 15.249 19.071 15.061C19.073 14.8668 19.1203 14.6758 19.209 14.503C19.295 14.336 19.449 14.179 20.047 13.623L20.391 13.303L20.42 13.277C21.21 12.544 21.84 11.957 22.282 11.467C22.718 10.982 23.082 10.473 23.163 9.88301C23.2206 9.46674 23.1821 9.0428 23.0504 8.64374C22.9186 8.24469 22.6972 7.88114 22.403 7.58101C21.987 7.15501 21.391 6.96301 20.753 6.83301C20.105 6.70101 19.249 6.60601 18.178 6.48701L18.139 6.48301L17.813 6.44701C17.133 6.37101 16.953 6.34301 16.805 6.27901C16.6518 6.21279 16.5134 6.11656 16.398 5.99601C16.287 5.87901 16.198 5.71901 15.892 5.10801L15.533 4.38901L15.516 4.35401C15.07 3.46201 14.712 2.74601 14.386 2.22001C14.061 1.69601 13.695 1.23201 13.179 0.987006H13.178Z" fill="white"/>
</svg>
