<svg width="24" height="24" viewBox="0 0 24 24" fill="none" xmlns="http://www.w3.org/2000/svg">
<path fill-rule="evenodd" clip-rule="evenodd" d="M10.822 0.987006C11.1902 0.812467 11.5926 0.721924 12 0.721924C12.4075 0.721924 12.8098 0.812467 13.178 0.987006C13.695 1.23201 14.061 1.69601 14.385 2.22001C14.712 2.74601 15.07 3.46201 15.515 4.35401L15.533 4.38901L15.893 5.10701C16.198 5.71901 16.287 5.87901 16.398 5.99601C16.514 6.11601 16.652 6.21301 16.804 6.27901C16.953 6.34301 17.134 6.37101 17.813 6.44701L18.139 6.48301L18.179 6.48701C19.249 6.60701 20.105 6.70101 20.753 6.83301C21.391 6.96301 21.987 7.15501 22.403 7.58101C22.6972 7.88114 22.9186 8.24469 23.0504 8.64374C23.1821 9.0428 23.2206 9.46674 23.163 9.88301C23.082 10.473 22.718 10.982 22.282 11.466C21.84 11.958 21.209 12.543 20.42 13.276L20.39 13.303L20.046 13.623C19.448 14.179 19.295 14.336 19.209 14.503C19.1203 14.6758 19.073 14.8668 19.071 15.061C19.069 15.249 19.133 15.463 19.407 16.244L19.42 16.281C19.824 17.433 20.144 18.345 20.326 19.055C20.502 19.745 20.601 20.422 20.371 21.008C20.2112 21.4145 19.9569 21.7771 19.6291 22.0658C19.3013 22.3545 18.9095 22.5609 18.486 22.668C17.877 22.823 17.224 22.643 16.568 22.385C15.894 22.119 15.042 21.693 13.967 21.155L13.932 21.138L13.096 20.72C12.532 20.438 12.378 20.369 12.23 20.34C12.078 20.3116 11.922 20.3116 11.77 20.34C11.622 20.369 11.468 20.438 10.904 20.72L10.068 21.138L10.033 21.155C8.95802 21.693 8.10502 22.119 7.43302 22.385C6.77602 22.643 6.12302 22.823 5.51302 22.669C5.08965 22.5617 4.69794 22.355 4.37031 22.0662C4.04269 21.7773 3.78858 21.4146 3.62902 21.008C3.39902 20.422 3.49802 19.744 3.67402 19.055C3.85602 18.345 4.17602 17.433 4.58002 16.281L4.59302 16.244C4.86702 15.464 4.93102 15.249 4.92902 15.061C4.92699 14.8668 4.87974 14.6758 4.79102 14.503C4.70502 14.336 4.55102 14.179 3.95302 13.623L3.60902 13.303L3.58002 13.277C2.79002 12.544 2.16002 11.957 1.71802 11.467C1.28202 10.982 0.918017 10.473 0.837017 9.88301C0.779387 9.46674 0.817925 9.0428 0.949671 8.64374C1.08142 8.24469 1.30287 7.88114 1.59702 7.58101C2.01302 7.15501 2.60902 6.96301 3.24702 6.83301C3.89502 6.70101 4.75102 6.60601 5.82202 6.48701L5.86102 6.48301L6.18702 6.44701C6.86702 6.37101 7.04702 6.34301 7.19602 6.27901C7.3485 6.21256 7.48619 6.11635 7.60102 5.99601C7.71302 5.87901 7.80202 5.71901 8.10802 5.10701L8.46702 4.38901L8.48402 4.35401C8.93002 3.46201 9.28802 2.74601 9.61402 2.22001C9.93902 1.69601 10.305 1.23201 10.821 0.987006H10.822ZM12.536 2.34301C12.3685 2.2635 12.1854 2.22226 12 2.22226C11.8146 2.22226 11.6315 2.2635 11.464 2.34301C11.357 2.39301 11.182 2.53801 10.89 3.01001C10.604 3.47101 10.276 4.12501 9.80902 5.06001L9.44902 5.77801L9.40702 5.86401C9.16402 6.34901 8.97402 6.73101 8.68702 7.03201C8.43356 7.29723 8.12959 7.50905 7.79302 7.65501C7.41102 7.82101 6.98702 7.86801 6.44702 7.92701L6.35302 7.93701L6.02602 7.97401C4.90702 8.09801 4.12002 8.18701 3.54602 8.30401C2.95602 8.42401 2.75002 8.54701 2.66802 8.63101C2.53427 8.76734 2.43354 8.93251 2.37356 9.11383C2.31358 9.29515 2.29595 9.48781 2.32202 9.67701C2.33902 9.79401 2.43102 10.015 2.83302 10.463C3.22402 10.898 3.80502 11.438 4.63002 12.204L4.97402 12.524L5.05802 12.602C5.53202 13.041 5.90302 13.385 6.12502 13.818C6.32002 14.198 6.42502 14.618 6.42902 15.045C6.43402 15.532 6.26402 16.015 6.04802 16.63L6.00802 16.74C5.58802 17.938 5.29102 18.788 5.12802 19.427C4.95702 20.094 4.98402 20.354 5.02502 20.46C5.17202 20.835 5.49102 21.116 5.88202 21.215C5.99302 21.243 6.25202 21.238 6.88202 20.989C7.48602 20.751 8.27902 20.355 9.39802 19.796L10.233 19.378L10.312 19.338C10.76 19.114 11.112 18.938 11.492 18.867C11.8274 18.804 12.1716 18.804 12.507 18.867C12.887 18.938 13.24 19.114 13.688 19.339L13.767 19.379L14.602 19.796C15.72 20.356 16.514 20.751 17.118 20.989C17.748 21.237 18.006 21.243 18.118 21.215C18.508 21.115 18.828 20.835 18.975 20.46C19.016 20.354 19.043 20.094 18.873 19.427C18.709 18.788 18.411 17.937 17.991 16.74L17.952 16.63C17.736 16.014 17.566 15.532 17.572 15.045C17.5764 14.618 17.6801 14.1979 17.875 13.818C18.097 13.385 18.468 13.041 18.942 12.602L19.026 12.524L19.37 12.204C20.195 11.438 20.775 10.898 21.167 10.464C21.569 10.015 21.661 9.79401 21.677 9.67701C21.7032 9.48789 21.6857 9.29528 21.6259 9.11396C21.5661 8.93264 21.4656 8.76743 21.332 8.63101C21.25 8.54701 21.044 8.42301 20.453 8.30301C19.88 8.18601 19.093 8.09801 17.973 7.97301L17.647 7.93801L17.553 7.92801C17.013 7.86801 16.589 7.82101 16.207 7.65501C15.8708 7.50891 15.5672 7.2971 15.314 7.03201C15.026 6.73101 14.835 6.34901 14.594 5.86401C14.5797 5.83533 14.5654 5.80666 14.551 5.77801L14.191 5.06001C13.724 4.12501 13.396 3.47101 13.111 3.01001C12.818 2.53801 12.643 2.39301 12.536 2.34301V2.34301Z" fill="white"/>
</svg>
