<svg width="17" height="17" viewBox="0 0 17 17" fill="none" xmlns="http://www.w3.org/2000/svg">
<path d="M13.4263 0.877836L10.0878 5.83784C9.85692 6.17561 10.3009 6.5845 10.6205 6.30006L13.9058 3.43784C13.9945 3.36673 14.1189 3.42006 14.1189 3.5445V12.4867C14.1189 12.6112 13.959 12.6645 13.888 12.5756L3.94349 0.664503C3.62385 0.273392 3.16214 0.0600586 2.64716 0.0600586H2.29199C1.36858 0.0600586 0.60498 0.824503 0.60498 1.76673V14.3534C0.60498 15.2956 1.36858 16.0601 2.30975 16.0601C2.89577 16.0601 3.44627 15.7578 3.76591 15.2423L7.10442 10.2823C7.33528 9.9445 6.89133 9.53561 6.57168 9.82006L3.28645 12.6645C3.19765 12.7356 3.07335 12.6823 3.07335 12.5578V3.63339C3.07335 3.50895 3.23317 3.45561 3.3042 3.5445L13.2487 15.4556C13.5684 15.8467 14.0478 16.0601 14.545 16.0601H14.9002C15.8414 16.0601 16.605 15.2956 16.605 14.3534V1.76673C16.605 0.824503 15.8414 0.0600586 14.9002 0.0600586C14.2964 0.0600586 13.7459 0.362281 13.4263 0.877836Z" fill="white"/>
</svg>
