<svg width="22" height="22" viewBox="0 0 22 22" fill="none" xmlns="http://www.w3.org/2000/svg">
<path d="M16.3506 14.802H16.3507L19.3664 14.8014V14.9135C19.3664 17.4138 17.4802 19.4255 15.1887 19.4255H6.8123C4.52075 19.4255 2.63356 17.4137 2.63356 14.9135V7.42688C2.63356 4.9266 4.52075 2.91487 6.8123 2.91487H15.1887C17.4297 2.91487 19.2832 4.839 19.3637 7.26256L16.3506 7.26315H16.3505C14.3997 7.26426 12.8352 8.96808 12.8352 11.0347V11.0348C12.8362 13.0992 14.4008 14.802 16.3506 14.802ZM21.18 7.42688C21.18 3.88952 18.505 0.990166 15.1887 0.990166H6.8123C3.49603 0.990166 0.82 3.88948 0.82 7.42688V14.9135C0.82 18.4498 3.49601 21.3502 6.8123 21.3502H15.1887C18.505 21.3502 21.18 18.4497 21.18 14.9135V7.42688ZM14.6488 11.0336C14.6488 10.0043 15.4244 9.18878 16.3508 9.18785L19.3664 9.18726V12.8767L16.3506 12.8773C16.3506 12.8773 16.3506 12.8773 16.3506 12.8773C15.4253 12.8773 14.6488 12.0618 14.6488 11.0336ZM17.7009 10.9689C17.7009 10.4504 17.3069 10.0066 16.7941 10.0066H16.4917C15.9789 10.0066 15.585 10.4504 15.585 10.9689C15.585 11.4875 15.9789 11.9313 16.4917 11.9313H16.7941C17.3069 11.9313 17.7009 11.4875 17.7009 10.9689ZM12.261 6.68636C12.261 6.16781 11.867 5.72401 11.3542 5.72401H6.12234C5.60949 5.72401 5.21556 6.16781 5.21556 6.68636C5.21556 7.20491 5.60949 7.64871 6.12234 7.64871H11.3542C11.867 7.64871 12.261 7.20491 12.261 6.68636Z" fill="white" stroke="white" stroke-width="0.36"/>
</svg>
