<svg width="24" height="24" viewBox="0 0 24 24" fill="none" xmlns="http://www.w3.org/2000/svg">
<path d="M16.55 2H8.17C4.77 2 2 4.96 2 8.61V16.1C2 19.75 4.77 22.72 8.17 22.72H16.55C19.95 22.72 22.72 19.75 22.72 16.1V8.61C22.72 4.96 19.95 2 16.55 2ZM16.19 12.22C16.19 11.3 16.87 10.56 17.71 10.56L20.54 10.55V13.88H17.71C16.87 13.88 16.19 13.13 16.19 12.22ZM15.09 9.44C14.39 10.19 14.01 11.18 14.01 12.22C14.01 13.28 14.39 14.26 15.09 15C15.8 15.75 16.73 16.17 17.71 16.17H20.54C20.51 18.53 18.73 20.43 16.55 20.43H8.17C5.96 20.43 4.17 18.49 4.17 16.1V8.61C4.17 6.22 5.96 4.28 8.17 4.28H16.55C18.65 4.28 20.37 6.02 20.53 8.27H17.71C16.73 8.27 15.8 8.68 15.09 9.44Z" fill="white"/>
<path d="M18.15 13.3C18.75 13.3 19.24 12.79 19.24 12.16C19.24 11.53 18.75 11.01 18.15 11.01H17.85C17.25 11.01 16.76 11.53 16.76 12.16C16.76 12.79 17.25 13.3 17.85 13.3H18.15Z" fill="white"/>
<path d="M12.71 6.72998H7.48001C6.88001 6.72998 6.39001 7.23998 6.39001 7.86998C6.39001 8.49998 6.88001 9.01998 7.48001 9.01998H12.71C13.31 9.01998 13.8 8.49998 13.8 7.86998C13.8 7.23998 13.31 6.72998 12.71 6.72998Z" fill="white"/>
</svg>
